<mxfile host="app.diagrams.net" modified="2023-11-14T16:28:29.630Z" agent="Mozilla/5.0 (Macintosh; Intel Mac OS X 10_15_7) AppleWebKit/537.36 (KHTML, like Gecko) Chrome/119.0.0.0 Safari/537.36" etag="eH3fOQQkiXG5ERi6lKl0" version="22.1.1" type="device">
  <diagram name="Page-1" id="I-2IrdV80o64fIkjQn3r">
    <mxGraphModel dx="1242" dy="1906" grid="1" gridSize="10" guides="1" tooltips="1" connect="1" arrows="1" fold="1" page="1" pageScale="1" pageWidth="827" pageHeight="1169" math="0" shadow="0">
      <root>
        <mxCell id="0" />
        <mxCell id="1" parent="0" />
        <mxCell id="UFddj2QTsvXGBN7HI6nM-248" value="User" style="swimlane;fontStyle=1;childLayout=stackLayout;horizontal=1;startSize=26;horizontalStack=0;resizeParent=1;resizeParentMax=0;resizeLast=0;collapsible=1;marginBottom=0;" parent="1" vertex="1">
          <mxGeometry x="790" y="10" width="160" height="286" as="geometry" />
        </mxCell>
        <mxCell id="UFddj2QTsvXGBN7HI6nM-249" value="  + UserID: Integer" style="text;strokeColor=none;fillColor=none;align=left;verticalAlign=top;spacingLeft=4;spacingRight=4;overflow=hidden;rotatable=0;points=[[0,0.5],[1,0.5]];portConstraint=eastwest;" parent="UFddj2QTsvXGBN7HI6nM-248" vertex="1">
          <mxGeometry y="26" width="160" height="26" as="geometry" />
        </mxCell>
        <mxCell id="UFddj2QTsvXGBN7HI6nM-250" value="  + Username: String" style="text;strokeColor=none;fillColor=none;align=left;verticalAlign=top;spacingLeft=4;spacingRight=4;overflow=hidden;rotatable=0;points=[[0,0.5],[1,0.5]];portConstraint=eastwest;" parent="UFddj2QTsvXGBN7HI6nM-248" vertex="1">
          <mxGeometry y="52" width="160" height="26" as="geometry" />
        </mxCell>
        <mxCell id="UFddj2QTsvXGBN7HI6nM-251" value="  + Password: String" style="text;strokeColor=none;fillColor=none;align=left;verticalAlign=top;spacingLeft=4;spacingRight=4;overflow=hidden;rotatable=0;points=[[0,0.5],[1,0.5]];portConstraint=eastwest;" parent="UFddj2QTsvXGBN7HI6nM-248" vertex="1">
          <mxGeometry y="78" width="160" height="26" as="geometry" />
        </mxCell>
        <mxCell id="UFddj2QTsvXGBN7HI6nM-252" value="  + Email: String" style="text;strokeColor=none;fillColor=none;align=left;verticalAlign=top;spacingLeft=4;spacingRight=4;overflow=hidden;rotatable=0;points=[[0,0.5],[1,0.5]];portConstraint=eastwest;" parent="UFddj2QTsvXGBN7HI6nM-248" vertex="1">
          <mxGeometry y="104" width="160" height="26" as="geometry" />
        </mxCell>
        <mxCell id="UFddj2QTsvXGBN7HI6nM-259" value="" style="endArrow=none;html=1;rounded=0;entryX=1;entryY=0.5;entryDx=0;entryDy=0;" parent="UFddj2QTsvXGBN7HI6nM-248" target="UFddj2QTsvXGBN7HI6nM-254" edge="1">
          <mxGeometry width="50" height="50" relative="1" as="geometry">
            <mxPoint y="170" as="sourcePoint" />
            <mxPoint x="50" y="120" as="targetPoint" />
          </mxGeometry>
        </mxCell>
        <mxCell id="UFddj2QTsvXGBN7HI6nM-253" value="  + Phone: String" style="text;strokeColor=none;fillColor=none;align=left;verticalAlign=top;spacingLeft=4;spacingRight=4;overflow=hidden;rotatable=0;points=[[0,0.5],[1,0.5]];portConstraint=eastwest;" parent="UFddj2QTsvXGBN7HI6nM-248" vertex="1">
          <mxGeometry y="130" width="160" height="26" as="geometry" />
        </mxCell>
        <mxCell id="UFddj2QTsvXGBN7HI6nM-254" value="  " style="text;strokeColor=none;fillColor=none;align=left;verticalAlign=top;spacingLeft=4;spacingRight=4;overflow=hidden;rotatable=0;points=[[0,0.5],[1,0.5]];portConstraint=eastwest;" parent="UFddj2QTsvXGBN7HI6nM-248" vertex="1">
          <mxGeometry y="156" width="160" height="26" as="geometry" />
        </mxCell>
        <mxCell id="UFddj2QTsvXGBN7HI6nM-255" value="  + Login()" style="text;strokeColor=none;fillColor=none;align=left;verticalAlign=top;spacingLeft=4;spacingRight=4;overflow=hidden;rotatable=0;points=[[0,0.5],[1,0.5]];portConstraint=eastwest;" parent="UFddj2QTsvXGBN7HI6nM-248" vertex="1">
          <mxGeometry y="182" width="160" height="26" as="geometry" />
        </mxCell>
        <mxCell id="UFddj2QTsvXGBN7HI6nM-256" value="  + Logout()" style="text;strokeColor=none;fillColor=none;align=left;verticalAlign=top;spacingLeft=4;spacingRight=4;overflow=hidden;rotatable=0;points=[[0,0.5],[1,0.5]];portConstraint=eastwest;" parent="UFddj2QTsvXGBN7HI6nM-248" vertex="1">
          <mxGeometry y="208" width="160" height="26" as="geometry" />
        </mxCell>
        <mxCell id="UFddj2QTsvXGBN7HI6nM-257" value="  + Register()" style="text;strokeColor=none;fillColor=none;align=left;verticalAlign=top;spacingLeft=4;spacingRight=4;overflow=hidden;rotatable=0;points=[[0,0.5],[1,0.5]];portConstraint=eastwest;" parent="UFddj2QTsvXGBN7HI6nM-248" vertex="1">
          <mxGeometry y="234" width="160" height="26" as="geometry" />
        </mxCell>
        <mxCell id="UFddj2QTsvXGBN7HI6nM-258" value="  + UpdateProfile()" style="text;strokeColor=none;fillColor=none;align=left;verticalAlign=top;spacingLeft=4;spacingRight=4;overflow=hidden;rotatable=0;points=[[0,0.5],[1,0.5]];portConstraint=eastwest;" parent="UFddj2QTsvXGBN7HI6nM-248" vertex="1">
          <mxGeometry y="260" width="160" height="26" as="geometry" />
        </mxCell>
        <mxCell id="UFddj2QTsvXGBN7HI6nM-443" value="Pet" style="swimlane;fontStyle=1;childLayout=stackLayout;horizontal=1;startSize=26;horizontalStack=0;resizeParent=1;resizeParentMax=0;resizeLast=0;collapsible=1;marginBottom=0;" parent="1" vertex="1">
          <mxGeometry x="1110" y="10" width="160" height="442" as="geometry" />
        </mxCell>
        <mxCell id="UFddj2QTsvXGBN7HI6nM-444" value="  + PetID: Integer" style="text;strokeColor=none;fillColor=none;align=left;verticalAlign=top;spacingLeft=4;spacingRight=4;overflow=hidden;rotatable=0;points=[[0,0.5],[1,0.5]];portConstraint=eastwest;" parent="UFddj2QTsvXGBN7HI6nM-443" vertex="1">
          <mxGeometry y="26" width="160" height="26" as="geometry" />
        </mxCell>
        <mxCell id="UFddj2QTsvXGBN7HI6nM-445" value="  + Name: String" style="text;strokeColor=none;fillColor=none;align=left;verticalAlign=top;spacingLeft=4;spacingRight=4;overflow=hidden;rotatable=0;points=[[0,0.5],[1,0.5]];portConstraint=eastwest;" parent="UFddj2QTsvXGBN7HI6nM-443" vertex="1">
          <mxGeometry y="52" width="160" height="26" as="geometry" />
        </mxCell>
        <mxCell id="UFddj2QTsvXGBN7HI6nM-446" value="  + Species: String" style="text;strokeColor=none;fillColor=none;align=left;verticalAlign=top;spacingLeft=4;spacingRight=4;overflow=hidden;rotatable=0;points=[[0,0.5],[1,0.5]];portConstraint=eastwest;" parent="UFddj2QTsvXGBN7HI6nM-443" vertex="1">
          <mxGeometry y="78" width="160" height="26" as="geometry" />
        </mxCell>
        <mxCell id="UFddj2QTsvXGBN7HI6nM-447" value="  + Breed: String" style="text;strokeColor=none;fillColor=none;align=left;verticalAlign=top;spacingLeft=4;spacingRight=4;overflow=hidden;rotatable=0;points=[[0,0.5],[1,0.5]];portConstraint=eastwest;" parent="UFddj2QTsvXGBN7HI6nM-443" vertex="1">
          <mxGeometry y="104" width="160" height="26" as="geometry" />
        </mxCell>
        <mxCell id="UFddj2QTsvXGBN7HI6nM-448" value="  + Age: Integer" style="text;strokeColor=none;fillColor=none;align=left;verticalAlign=top;spacingLeft=4;spacingRight=4;overflow=hidden;rotatable=0;points=[[0,0.5],[1,0.5]];portConstraint=eastwest;" parent="UFddj2QTsvXGBN7HI6nM-443" vertex="1">
          <mxGeometry y="130" width="160" height="26" as="geometry" />
        </mxCell>
        <mxCell id="UFddj2QTsvXGBN7HI6nM-449" value="  + Gender: String" style="text;strokeColor=none;fillColor=none;align=left;verticalAlign=top;spacingLeft=4;spacingRight=4;overflow=hidden;rotatable=0;points=[[0,0.5],[1,0.5]];portConstraint=eastwest;" parent="UFddj2QTsvXGBN7HI6nM-443" vertex="1">
          <mxGeometry y="156" width="160" height="26" as="geometry" />
        </mxCell>
        <mxCell id="UFddj2QTsvXGBN7HI6nM-450" value="  + Size: String" style="text;strokeColor=none;fillColor=none;align=left;verticalAlign=top;spacingLeft=4;spacingRight=4;overflow=hidden;rotatable=0;points=[[0,0.5],[1,0.5]];portConstraint=eastwest;" parent="UFddj2QTsvXGBN7HI6nM-443" vertex="1">
          <mxGeometry y="182" width="160" height="26" as="geometry" />
        </mxCell>
        <mxCell id="UFddj2QTsvXGBN7HI6nM-451" value="  + Color: String" style="text;strokeColor=none;fillColor=none;align=left;verticalAlign=top;spacingLeft=4;spacingRight=4;overflow=hidden;rotatable=0;points=[[0,0.5],[1,0.5]];portConstraint=eastwest;" parent="UFddj2QTsvXGBN7HI6nM-443" vertex="1">
          <mxGeometry y="208" width="160" height="26" as="geometry" />
        </mxCell>
        <mxCell id="UFddj2QTsvXGBN7HI6nM-452" value="  + Description: String" style="text;strokeColor=none;fillColor=none;align=left;verticalAlign=top;spacingLeft=4;spacingRight=4;overflow=hidden;rotatable=0;points=[[0,0.5],[1,0.5]];portConstraint=eastwest;" parent="UFddj2QTsvXGBN7HI6nM-443" vertex="1">
          <mxGeometry y="234" width="160" height="26" as="geometry" />
        </mxCell>
        <mxCell id="UFddj2QTsvXGBN7HI6nM-453" value="  + AdoptionStatus: String" style="text;strokeColor=none;fillColor=none;align=left;verticalAlign=top;spacingLeft=4;spacingRight=4;overflow=hidden;rotatable=0;points=[[0,0.5],[1,0.5]];portConstraint=eastwest;" parent="UFddj2QTsvXGBN7HI6nM-443" vertex="1">
          <mxGeometry y="260" width="160" height="26" as="geometry" />
        </mxCell>
        <mxCell id="UFddj2QTsvXGBN7HI6nM-454" value="  " style="text;strokeColor=none;fillColor=none;align=left;verticalAlign=top;spacingLeft=4;spacingRight=4;overflow=hidden;rotatable=0;points=[[0,0.5],[1,0.5]];portConstraint=eastwest;" parent="UFddj2QTsvXGBN7HI6nM-443" vertex="1">
          <mxGeometry y="286" width="160" height="26" as="geometry" />
        </mxCell>
        <mxCell id="UFddj2QTsvXGBN7HI6nM-455" value="  + AddPet()" style="text;strokeColor=none;fillColor=none;align=left;verticalAlign=top;spacingLeft=4;spacingRight=4;overflow=hidden;rotatable=0;points=[[0,0.5],[1,0.5]];portConstraint=eastwest;" parent="UFddj2QTsvXGBN7HI6nM-443" vertex="1">
          <mxGeometry y="312" width="160" height="26" as="geometry" />
        </mxCell>
        <mxCell id="UFddj2QTsvXGBN7HI6nM-456" value="  + UpdatePetDetails()" style="text;strokeColor=none;fillColor=none;align=left;verticalAlign=top;spacingLeft=4;spacingRight=4;overflow=hidden;rotatable=0;points=[[0,0.5],[1,0.5]];portConstraint=eastwest;" parent="UFddj2QTsvXGBN7HI6nM-443" vertex="1">
          <mxGeometry y="338" width="160" height="26" as="geometry" />
        </mxCell>
        <mxCell id="UFddj2QTsvXGBN7HI6nM-457" value="  + RemovePet()" style="text;strokeColor=none;fillColor=none;align=left;verticalAlign=top;spacingLeft=4;spacingRight=4;overflow=hidden;rotatable=0;points=[[0,0.5],[1,0.5]];portConstraint=eastwest;" parent="UFddj2QTsvXGBN7HI6nM-443" vertex="1">
          <mxGeometry y="364" width="160" height="26" as="geometry" />
        </mxCell>
        <mxCell id="UFddj2QTsvXGBN7HI6nM-458" value="  + GetAvailablePets()" style="text;strokeColor=none;fillColor=none;align=left;verticalAlign=top;spacingLeft=4;spacingRight=4;overflow=hidden;rotatable=0;points=[[0,0.5],[1,0.5]];portConstraint=eastwest;" parent="UFddj2QTsvXGBN7HI6nM-443" vertex="1">
          <mxGeometry y="390" width="160" height="26" as="geometry" />
        </mxCell>
        <mxCell id="UFddj2QTsvXGBN7HI6nM-459" value="  + GetPetDetails()" style="text;strokeColor=none;fillColor=none;align=left;verticalAlign=top;spacingLeft=4;spacingRight=4;overflow=hidden;rotatable=0;points=[[0,0.5],[1,0.5]];portConstraint=eastwest;" parent="UFddj2QTsvXGBN7HI6nM-443" vertex="1">
          <mxGeometry y="416" width="160" height="26" as="geometry" />
        </mxCell>
        <mxCell id="UFddj2QTsvXGBN7HI6nM-527" value="" style="endArrow=none;html=1;rounded=0;exitX=0;exitY=0.5;exitDx=0;exitDy=0;" parent="UFddj2QTsvXGBN7HI6nM-443" source="UFddj2QTsvXGBN7HI6nM-454" edge="1">
          <mxGeometry width="50" height="50" relative="1" as="geometry">
            <mxPoint x="-120" y="430" as="sourcePoint" />
            <mxPoint x="160" y="299" as="targetPoint" />
          </mxGeometry>
        </mxCell>
        <mxCell id="UFddj2QTsvXGBN7HI6nM-460" value="AdoptionRequest" style="swimlane;fontStyle=1;childLayout=stackLayout;horizontal=1;startSize=26;horizontalStack=0;resizeParent=1;resizeParentMax=0;resizeLast=0;collapsible=1;marginBottom=0;" parent="1" vertex="1">
          <mxGeometry x="1100" y="530" width="180" height="286" as="geometry" />
        </mxCell>
        <mxCell id="UFddj2QTsvXGBN7HI6nM-461" value="  + RequestID: Integer" style="text;strokeColor=none;fillColor=none;align=left;verticalAlign=top;spacingLeft=4;spacingRight=4;overflow=hidden;rotatable=0;points=[[0,0.5],[1,0.5]];portConstraint=eastwest;" parent="UFddj2QTsvXGBN7HI6nM-460" vertex="1">
          <mxGeometry y="26" width="180" height="26" as="geometry" />
        </mxCell>
        <mxCell id="UFddj2QTsvXGBN7HI6nM-462" value="  + UserID: Integer" style="text;strokeColor=none;fillColor=none;align=left;verticalAlign=top;spacingLeft=4;spacingRight=4;overflow=hidden;rotatable=0;points=[[0,0.5],[1,0.5]];portConstraint=eastwest;" parent="UFddj2QTsvXGBN7HI6nM-460" vertex="1">
          <mxGeometry y="52" width="180" height="26" as="geometry" />
        </mxCell>
        <mxCell id="UFddj2QTsvXGBN7HI6nM-463" value="  + PetID: Integer" style="text;strokeColor=none;fillColor=none;align=left;verticalAlign=top;spacingLeft=4;spacingRight=4;overflow=hidden;rotatable=0;points=[[0,0.5],[1,0.5]];portConstraint=eastwest;" parent="UFddj2QTsvXGBN7HI6nM-460" vertex="1">
          <mxGeometry y="78" width="180" height="26" as="geometry" />
        </mxCell>
        <mxCell id="UFddj2QTsvXGBN7HI6nM-464" value="  + Status: String" style="text;strokeColor=none;fillColor=none;align=left;verticalAlign=top;spacingLeft=4;spacingRight=4;overflow=hidden;rotatable=0;points=[[0,0.5],[1,0.5]];portConstraint=eastwest;" parent="UFddj2QTsvXGBN7HI6nM-460" vertex="1">
          <mxGeometry y="104" width="180" height="26" as="geometry" />
        </mxCell>
        <mxCell id="UFddj2QTsvXGBN7HI6nM-465" value="  + DateRequested: DateTime" style="text;strokeColor=none;fillColor=none;align=left;verticalAlign=top;spacingLeft=4;spacingRight=4;overflow=hidden;rotatable=0;points=[[0,0.5],[1,0.5]];portConstraint=eastwest;" parent="UFddj2QTsvXGBN7HI6nM-460" vertex="1">
          <mxGeometry y="130" width="180" height="26" as="geometry" />
        </mxCell>
        <mxCell id="UFddj2QTsvXGBN7HI6nM-466" value="  " style="text;strokeColor=none;fillColor=none;align=left;verticalAlign=top;spacingLeft=4;spacingRight=4;overflow=hidden;rotatable=0;points=[[0,0.5],[1,0.5]];portConstraint=eastwest;" parent="UFddj2QTsvXGBN7HI6nM-460" vertex="1">
          <mxGeometry y="156" width="180" height="26" as="geometry" />
        </mxCell>
        <mxCell id="UFddj2QTsvXGBN7HI6nM-467" value="  + CreateRequest()" style="text;strokeColor=none;fillColor=none;align=left;verticalAlign=top;spacingLeft=4;spacingRight=4;overflow=hidden;rotatable=0;points=[[0,0.5],[1,0.5]];portConstraint=eastwest;" parent="UFddj2QTsvXGBN7HI6nM-460" vertex="1">
          <mxGeometry y="182" width="180" height="26" as="geometry" />
        </mxCell>
        <mxCell id="UFddj2QTsvXGBN7HI6nM-468" value="  + UpdateRequestStatus()" style="text;strokeColor=none;fillColor=none;align=left;verticalAlign=top;spacingLeft=4;spacingRight=4;overflow=hidden;rotatable=0;points=[[0,0.5],[1,0.5]];portConstraint=eastwest;" parent="UFddj2QTsvXGBN7HI6nM-460" vertex="1">
          <mxGeometry y="208" width="180" height="26" as="geometry" />
        </mxCell>
        <mxCell id="UFddj2QTsvXGBN7HI6nM-469" value="  + GetRequestsForPet()" style="text;strokeColor=none;fillColor=none;align=left;verticalAlign=top;spacingLeft=4;spacingRight=4;overflow=hidden;rotatable=0;points=[[0,0.5],[1,0.5]];portConstraint=eastwest;" parent="UFddj2QTsvXGBN7HI6nM-460" vertex="1">
          <mxGeometry y="234" width="180" height="26" as="geometry" />
        </mxCell>
        <mxCell id="UFddj2QTsvXGBN7HI6nM-470" value="  + GetRequestsForUser()" style="text;strokeColor=none;fillColor=none;align=left;verticalAlign=top;spacingLeft=4;spacingRight=4;overflow=hidden;rotatable=0;points=[[0,0.5],[1,0.5]];portConstraint=eastwest;" parent="UFddj2QTsvXGBN7HI6nM-460" vertex="1">
          <mxGeometry y="260" width="180" height="26" as="geometry" />
        </mxCell>
        <mxCell id="UFddj2QTsvXGBN7HI6nM-528" value="" style="endArrow=none;html=1;rounded=0;entryX=1;entryY=0.5;entryDx=0;entryDy=0;exitX=0;exitY=0.5;exitDx=0;exitDy=0;" parent="UFddj2QTsvXGBN7HI6nM-460" source="UFddj2QTsvXGBN7HI6nM-466" target="UFddj2QTsvXGBN7HI6nM-466" edge="1">
          <mxGeometry width="50" height="50" relative="1" as="geometry">
            <mxPoint x="-150" y="150" as="sourcePoint" />
            <mxPoint x="-130" y="130" as="targetPoint" />
          </mxGeometry>
        </mxCell>
        <mxCell id="UFddj2QTsvXGBN7HI6nM-471" value="Shelter" style="swimlane;fontStyle=1;childLayout=stackLayout;horizontal=1;startSize=26;horizontalStack=0;resizeParent=1;resizeParentMax=0;resizeLast=0;collapsible=1;marginBottom=0;" parent="1" vertex="1">
          <mxGeometry x="1540" y="78" width="160" height="286" as="geometry" />
        </mxCell>
        <mxCell id="UFddj2QTsvXGBN7HI6nM-472" value="  + ShelterID: Integer" style="text;strokeColor=none;fillColor=none;align=left;verticalAlign=top;spacingLeft=4;spacingRight=4;overflow=hidden;rotatable=0;points=[[0,0.5],[1,0.5]];portConstraint=eastwest;" parent="UFddj2QTsvXGBN7HI6nM-471" vertex="1">
          <mxGeometry y="26" width="160" height="26" as="geometry" />
        </mxCell>
        <mxCell id="UFddj2QTsvXGBN7HI6nM-473" value="  + Name: String" style="text;strokeColor=none;fillColor=none;align=left;verticalAlign=top;spacingLeft=4;spacingRight=4;overflow=hidden;rotatable=0;points=[[0,0.5],[1,0.5]];portConstraint=eastwest;" parent="UFddj2QTsvXGBN7HI6nM-471" vertex="1">
          <mxGeometry y="52" width="160" height="26" as="geometry" />
        </mxCell>
        <mxCell id="UFddj2QTsvXGBN7HI6nM-474" value="  + Location: String" style="text;strokeColor=none;fillColor=none;align=left;verticalAlign=top;spacingLeft=4;spacingRight=4;overflow=hidden;rotatable=0;points=[[0,0.5],[1,0.5]];portConstraint=eastwest;" parent="UFddj2QTsvXGBN7HI6nM-471" vertex="1">
          <mxGeometry y="78" width="160" height="26" as="geometry" />
        </mxCell>
        <mxCell id="UFddj2QTsvXGBN7HI6nM-475" value="  + Phone: String" style="text;strokeColor=none;fillColor=none;align=left;verticalAlign=top;spacingLeft=4;spacingRight=4;overflow=hidden;rotatable=0;points=[[0,0.5],[1,0.5]];portConstraint=eastwest;" parent="UFddj2QTsvXGBN7HI6nM-471" vertex="1">
          <mxGeometry y="104" width="160" height="26" as="geometry" />
        </mxCell>
        <mxCell id="UFddj2QTsvXGBN7HI6nM-476" value="  + Email: String" style="text;strokeColor=none;fillColor=none;align=left;verticalAlign=top;spacingLeft=4;spacingRight=4;overflow=hidden;rotatable=0;points=[[0,0.5],[1,0.5]];portConstraint=eastwest;" parent="UFddj2QTsvXGBN7HI6nM-471" vertex="1">
          <mxGeometry y="130" width="160" height="26" as="geometry" />
        </mxCell>
        <mxCell id="UFddj2QTsvXGBN7HI6nM-477" value="  " style="text;strokeColor=none;fillColor=none;align=left;verticalAlign=top;spacingLeft=4;spacingRight=4;overflow=hidden;rotatable=0;points=[[0,0.5],[1,0.5]];portConstraint=eastwest;" parent="UFddj2QTsvXGBN7HI6nM-471" vertex="1">
          <mxGeometry y="156" width="160" height="26" as="geometry" />
        </mxCell>
        <mxCell id="UFddj2QTsvXGBN7HI6nM-478" value="  + AddShelter()" style="text;strokeColor=none;fillColor=none;align=left;verticalAlign=top;spacingLeft=4;spacingRight=4;overflow=hidden;rotatable=0;points=[[0,0.5],[1,0.5]];portConstraint=eastwest;" parent="UFddj2QTsvXGBN7HI6nM-471" vertex="1">
          <mxGeometry y="182" width="160" height="26" as="geometry" />
        </mxCell>
        <mxCell id="UFddj2QTsvXGBN7HI6nM-479" value="  + UpdateShelterDetails()" style="text;strokeColor=none;fillColor=none;align=left;verticalAlign=top;spacingLeft=4;spacingRight=4;overflow=hidden;rotatable=0;points=[[0,0.5],[1,0.5]];portConstraint=eastwest;" parent="UFddj2QTsvXGBN7HI6nM-471" vertex="1">
          <mxGeometry y="208" width="160" height="26" as="geometry" />
        </mxCell>
        <mxCell id="UFddj2QTsvXGBN7HI6nM-480" value="  + RemoveShelter()" style="text;strokeColor=none;fillColor=none;align=left;verticalAlign=top;spacingLeft=4;spacingRight=4;overflow=hidden;rotatable=0;points=[[0,0.5],[1,0.5]];portConstraint=eastwest;" parent="UFddj2QTsvXGBN7HI6nM-471" vertex="1">
          <mxGeometry y="234" width="160" height="26" as="geometry" />
        </mxCell>
        <mxCell id="UFddj2QTsvXGBN7HI6nM-481" value="  + GetShelterDetails()" style="text;strokeColor=none;fillColor=none;align=left;verticalAlign=top;spacingLeft=4;spacingRight=4;overflow=hidden;rotatable=0;points=[[0,0.5],[1,0.5]];portConstraint=eastwest;" parent="UFddj2QTsvXGBN7HI6nM-471" vertex="1">
          <mxGeometry y="260" width="160" height="26" as="geometry" />
        </mxCell>
        <mxCell id="UFddj2QTsvXGBN7HI6nM-530" value="" style="endArrow=none;html=1;rounded=0;entryX=1;entryY=0.5;entryDx=0;entryDy=0;exitX=0;exitY=0.5;exitDx=0;exitDy=0;" parent="UFddj2QTsvXGBN7HI6nM-471" source="UFddj2QTsvXGBN7HI6nM-477" target="UFddj2QTsvXGBN7HI6nM-477" edge="1">
          <mxGeometry width="50" height="50" relative="1" as="geometry">
            <mxPoint x="-50" y="200" as="sourcePoint" />
            <mxPoint y="150" as="targetPoint" />
          </mxGeometry>
        </mxCell>
        <mxCell id="UFddj2QTsvXGBN7HI6nM-482" value="Appointment" style="swimlane;fontStyle=1;childLayout=stackLayout;horizontal=1;startSize=26;horizontalStack=0;resizeParent=1;resizeParentMax=0;resizeLast=0;collapsible=1;marginBottom=0;" parent="1" vertex="1">
          <mxGeometry x="1510" y="550" width="190" height="286" as="geometry" />
        </mxCell>
        <mxCell id="UFddj2QTsvXGBN7HI6nM-483" value="  + AppointmentID: Integer" style="text;strokeColor=none;fillColor=none;align=left;verticalAlign=top;spacingLeft=4;spacingRight=4;overflow=hidden;rotatable=0;points=[[0,0.5],[1,0.5]];portConstraint=eastwest;" parent="UFddj2QTsvXGBN7HI6nM-482" vertex="1">
          <mxGeometry y="26" width="190" height="26" as="geometry" />
        </mxCell>
        <mxCell id="UFddj2QTsvXGBN7HI6nM-484" value="  + UserID: Integer" style="text;strokeColor=none;fillColor=none;align=left;verticalAlign=top;spacingLeft=4;spacingRight=4;overflow=hidden;rotatable=0;points=[[0,0.5],[1,0.5]];portConstraint=eastwest;" parent="UFddj2QTsvXGBN7HI6nM-482" vertex="1">
          <mxGeometry y="52" width="190" height="26" as="geometry" />
        </mxCell>
        <mxCell id="UFddj2QTsvXGBN7HI6nM-485" value="  + ShelterID: Integer" style="text;strokeColor=none;fillColor=none;align=left;verticalAlign=top;spacingLeft=4;spacingRight=4;overflow=hidden;rotatable=0;points=[[0,0.5],[1,0.5]];portConstraint=eastwest;" parent="UFddj2QTsvXGBN7HI6nM-482" vertex="1">
          <mxGeometry y="78" width="190" height="26" as="geometry" />
        </mxCell>
        <mxCell id="UFddj2QTsvXGBN7HI6nM-486" value="  + PetID: Integer" style="text;strokeColor=none;fillColor=none;align=left;verticalAlign=top;spacingLeft=4;spacingRight=4;overflow=hidden;rotatable=0;points=[[0,0.5],[1,0.5]];portConstraint=eastwest;" parent="UFddj2QTsvXGBN7HI6nM-482" vertex="1">
          <mxGeometry y="104" width="190" height="26" as="geometry" />
        </mxCell>
        <mxCell id="UFddj2QTsvXGBN7HI6nM-487" value="  + Date: DateTime" style="text;strokeColor=none;fillColor=none;align=left;verticalAlign=top;spacingLeft=4;spacingRight=4;overflow=hidden;rotatable=0;points=[[0,0.5],[1,0.5]];portConstraint=eastwest;" parent="UFddj2QTsvXGBN7HI6nM-482" vertex="1">
          <mxGeometry y="130" width="190" height="26" as="geometry" />
        </mxCell>
        <mxCell id="UFddj2QTsvXGBN7HI6nM-488" value="  + Status: String" style="text;strokeColor=none;fillColor=none;align=left;verticalAlign=top;spacingLeft=4;spacingRight=4;overflow=hidden;rotatable=0;points=[[0,0.5],[1,0.5]];portConstraint=eastwest;" parent="UFddj2QTsvXGBN7HI6nM-482" vertex="1">
          <mxGeometry y="156" width="190" height="26" as="geometry" />
        </mxCell>
        <mxCell id="Z4V1F3YT3ZnxIMDheG5e-19" value="" style="endArrow=none;html=1;rounded=0;exitX=0;exitY=0.5;exitDx=0;exitDy=0;entryX=1;entryY=0.5;entryDx=0;entryDy=0;" edge="1" parent="UFddj2QTsvXGBN7HI6nM-482">
          <mxGeometry width="50" height="50" relative="1" as="geometry">
            <mxPoint y="182" as="sourcePoint" />
            <mxPoint x="190" y="182" as="targetPoint" />
          </mxGeometry>
        </mxCell>
        <mxCell id="UFddj2QTsvXGBN7HI6nM-490" value="  + ScheduleAppointment()" style="text;strokeColor=none;fillColor=none;align=left;verticalAlign=top;spacingLeft=4;spacingRight=4;overflow=hidden;rotatable=0;points=[[0,0.5],[1,0.5]];portConstraint=eastwest;" parent="UFddj2QTsvXGBN7HI6nM-482" vertex="1">
          <mxGeometry y="182" width="190" height="26" as="geometry" />
        </mxCell>
        <mxCell id="UFddj2QTsvXGBN7HI6nM-491" value="  + UpdateAppointmentStatus()" style="text;strokeColor=none;fillColor=none;align=left;verticalAlign=top;spacingLeft=4;spacingRight=4;overflow=hidden;rotatable=0;points=[[0,0.5],[1,0.5]];portConstraint=eastwest;" parent="UFddj2QTsvXGBN7HI6nM-482" vertex="1">
          <mxGeometry y="208" width="190" height="26" as="geometry" />
        </mxCell>
        <mxCell id="UFddj2QTsvXGBN7HI6nM-492" value="  + GetUserAppointments()" style="text;strokeColor=none;fillColor=none;align=left;verticalAlign=top;spacingLeft=4;spacingRight=4;overflow=hidden;rotatable=0;points=[[0,0.5],[1,0.5]];portConstraint=eastwest;" parent="UFddj2QTsvXGBN7HI6nM-482" vertex="1">
          <mxGeometry y="234" width="190" height="26" as="geometry" />
        </mxCell>
        <mxCell id="UFddj2QTsvXGBN7HI6nM-493" value="  + GetShelterAppointments()" style="text;strokeColor=none;fillColor=none;align=left;verticalAlign=top;spacingLeft=4;spacingRight=4;overflow=hidden;rotatable=0;points=[[0,0.5],[1,0.5]];portConstraint=eastwest;" parent="UFddj2QTsvXGBN7HI6nM-482" vertex="1">
          <mxGeometry y="260" width="190" height="26" as="geometry" />
        </mxCell>
        <mxCell id="UFddj2QTsvXGBN7HI6nM-494" value="Review" style="swimlane;fontStyle=1;childLayout=stackLayout;horizontal=1;startSize=26;horizontalStack=0;resizeParent=1;resizeParentMax=0;resizeLast=0;collapsible=1;marginBottom=0;" parent="1" vertex="1">
          <mxGeometry x="1870" y="78" width="160" height="286" as="geometry" />
        </mxCell>
        <mxCell id="UFddj2QTsvXGBN7HI6nM-495" value="  + ReviewID: Integer" style="text;strokeColor=none;fillColor=none;align=left;verticalAlign=top;spacingLeft=4;spacingRight=4;overflow=hidden;rotatable=0;points=[[0,0.5],[1,0.5]];portConstraint=eastwest;" parent="UFddj2QTsvXGBN7HI6nM-494" vertex="1">
          <mxGeometry y="26" width="160" height="26" as="geometry" />
        </mxCell>
        <mxCell id="UFddj2QTsvXGBN7HI6nM-496" value="  + UserID: Integer" style="text;strokeColor=none;fillColor=none;align=left;verticalAlign=top;spacingLeft=4;spacingRight=4;overflow=hidden;rotatable=0;points=[[0,0.5],[1,0.5]];portConstraint=eastwest;" parent="UFddj2QTsvXGBN7HI6nM-494" vertex="1">
          <mxGeometry y="52" width="160" height="26" as="geometry" />
        </mxCell>
        <mxCell id="UFddj2QTsvXGBN7HI6nM-497" value="  + PetID: Integer" style="text;strokeColor=none;fillColor=none;align=left;verticalAlign=top;spacingLeft=4;spacingRight=4;overflow=hidden;rotatable=0;points=[[0,0.5],[1,0.5]];portConstraint=eastwest;" parent="UFddj2QTsvXGBN7HI6nM-494" vertex="1">
          <mxGeometry y="78" width="160" height="26" as="geometry" />
        </mxCell>
        <mxCell id="UFddj2QTsvXGBN7HI6nM-498" value="  + Rating: Integer" style="text;strokeColor=none;fillColor=none;align=left;verticalAlign=top;spacingLeft=4;spacingRight=4;overflow=hidden;rotatable=0;points=[[0,0.5],[1,0.5]];portConstraint=eastwest;" parent="UFddj2QTsvXGBN7HI6nM-494" vertex="1">
          <mxGeometry y="104" width="160" height="26" as="geometry" />
        </mxCell>
        <mxCell id="UFddj2QTsvXGBN7HI6nM-499" value="  + Comment: String" style="text;strokeColor=none;fillColor=none;align=left;verticalAlign=top;spacingLeft=4;spacingRight=4;overflow=hidden;rotatable=0;points=[[0,0.5],[1,0.5]];portConstraint=eastwest;" parent="UFddj2QTsvXGBN7HI6nM-494" vertex="1">
          <mxGeometry y="130" width="160" height="26" as="geometry" />
        </mxCell>
        <mxCell id="UFddj2QTsvXGBN7HI6nM-525" value="" style="endArrow=none;html=1;rounded=0;entryX=1;entryY=0.5;entryDx=0;entryDy=0;exitX=0;exitY=0.5;exitDx=0;exitDy=0;" parent="UFddj2QTsvXGBN7HI6nM-494" source="UFddj2QTsvXGBN7HI6nM-501" target="UFddj2QTsvXGBN7HI6nM-501" edge="1">
          <mxGeometry width="50" height="50" relative="1" as="geometry">
            <mxPoint y="198" as="sourcePoint" />
            <mxPoint x="50" y="148" as="targetPoint" />
          </mxGeometry>
        </mxCell>
        <mxCell id="UFddj2QTsvXGBN7HI6nM-500" value="  + Date: DateTime" style="text;strokeColor=none;fillColor=none;align=left;verticalAlign=top;spacingLeft=4;spacingRight=4;overflow=hidden;rotatable=0;points=[[0,0.5],[1,0.5]];portConstraint=eastwest;" parent="UFddj2QTsvXGBN7HI6nM-494" vertex="1">
          <mxGeometry y="156" width="160" height="26" as="geometry" />
        </mxCell>
        <mxCell id="UFddj2QTsvXGBN7HI6nM-501" value="  " style="text;strokeColor=none;fillColor=none;align=left;verticalAlign=top;spacingLeft=4;spacingRight=4;overflow=hidden;rotatable=0;points=[[0,0.5],[1,0.5]];portConstraint=eastwest;" parent="UFddj2QTsvXGBN7HI6nM-494" vertex="1">
          <mxGeometry y="182" width="160" height="26" as="geometry" />
        </mxCell>
        <mxCell id="UFddj2QTsvXGBN7HI6nM-502" value="  + AddReview()" style="text;strokeColor=none;fillColor=none;align=left;verticalAlign=top;spacingLeft=4;spacingRight=4;overflow=hidden;rotatable=0;points=[[0,0.5],[1,0.5]];portConstraint=eastwest;" parent="UFddj2QTsvXGBN7HI6nM-494" vertex="1">
          <mxGeometry y="208" width="160" height="26" as="geometry" />
        </mxCell>
        <mxCell id="UFddj2QTsvXGBN7HI6nM-503" value="  + GetReviewsForPet()" style="text;strokeColor=none;fillColor=none;align=left;verticalAlign=top;spacingLeft=4;spacingRight=4;overflow=hidden;rotatable=0;points=[[0,0.5],[1,0.5]];portConstraint=eastwest;" parent="UFddj2QTsvXGBN7HI6nM-494" vertex="1">
          <mxGeometry y="234" width="160" height="26" as="geometry" />
        </mxCell>
        <mxCell id="UFddj2QTsvXGBN7HI6nM-504" value="  + GetReviewsForUser()" style="text;strokeColor=none;fillColor=none;align=left;verticalAlign=top;spacingLeft=4;spacingRight=4;overflow=hidden;rotatable=0;points=[[0,0.5],[1,0.5]];portConstraint=eastwest;" parent="UFddj2QTsvXGBN7HI6nM-494" vertex="1">
          <mxGeometry y="260" width="160" height="26" as="geometry" />
        </mxCell>
        <mxCell id="UFddj2QTsvXGBN7HI6nM-505" value="PetCareService" style="swimlane;fontStyle=1;childLayout=stackLayout;horizontal=1;startSize=26;horizontalStack=0;resizeParent=1;resizeParentMax=0;resizeLast=0;collapsible=1;marginBottom=0;" parent="1" vertex="1">
          <mxGeometry x="1230" y="-360" width="160" height="260" as="geometry" />
        </mxCell>
        <mxCell id="UFddj2QTsvXGBN7HI6nM-506" value="  + ServiceID: Integer" style="text;strokeColor=none;fillColor=none;align=left;verticalAlign=top;spacingLeft=4;spacingRight=4;overflow=hidden;rotatable=0;points=[[0,0.5],[1,0.5]];portConstraint=eastwest;" parent="UFddj2QTsvXGBN7HI6nM-505" vertex="1">
          <mxGeometry y="26" width="160" height="26" as="geometry" />
        </mxCell>
        <mxCell id="UFddj2QTsvXGBN7HI6nM-507" value="  + Name: String" style="text;strokeColor=none;fillColor=none;align=left;verticalAlign=top;spacingLeft=4;spacingRight=4;overflow=hidden;rotatable=0;points=[[0,0.5],[1,0.5]];portConstraint=eastwest;" parent="UFddj2QTsvXGBN7HI6nM-505" vertex="1">
          <mxGeometry y="52" width="160" height="26" as="geometry" />
        </mxCell>
        <mxCell id="UFddj2QTsvXGBN7HI6nM-508" value="  + Description: String" style="text;strokeColor=none;fillColor=none;align=left;verticalAlign=top;spacingLeft=4;spacingRight=4;overflow=hidden;rotatable=0;points=[[0,0.5],[1,0.5]];portConstraint=eastwest;" parent="UFddj2QTsvXGBN7HI6nM-505" vertex="1">
          <mxGeometry y="78" width="160" height="26" as="geometry" />
        </mxCell>
        <mxCell id="UFddj2QTsvXGBN7HI6nM-509" value="  + Price: Decimal" style="text;strokeColor=none;fillColor=none;align=left;verticalAlign=top;spacingLeft=4;spacingRight=4;overflow=hidden;rotatable=0;points=[[0,0.5],[1,0.5]];portConstraint=eastwest;" parent="UFddj2QTsvXGBN7HI6nM-505" vertex="1">
          <mxGeometry y="104" width="160" height="26" as="geometry" />
        </mxCell>
        <mxCell id="UFddj2QTsvXGBN7HI6nM-510" value="  " style="text;strokeColor=none;fillColor=none;align=left;verticalAlign=top;spacingLeft=4;spacingRight=4;overflow=hidden;rotatable=0;points=[[0,0.5],[1,0.5]];portConstraint=eastwest;" parent="UFddj2QTsvXGBN7HI6nM-505" vertex="1">
          <mxGeometry y="130" width="160" height="26" as="geometry" />
        </mxCell>
        <mxCell id="UFddj2QTsvXGBN7HI6nM-511" value="  + AddService()" style="text;strokeColor=none;fillColor=none;align=left;verticalAlign=top;spacingLeft=4;spacingRight=4;overflow=hidden;rotatable=0;points=[[0,0.5],[1,0.5]];portConstraint=eastwest;" parent="UFddj2QTsvXGBN7HI6nM-505" vertex="1">
          <mxGeometry y="156" width="160" height="26" as="geometry" />
        </mxCell>
        <mxCell id="UFddj2QTsvXGBN7HI6nM-512" value="  + UpdateServiceDetails()" style="text;strokeColor=none;fillColor=none;align=left;verticalAlign=top;spacingLeft=4;spacingRight=4;overflow=hidden;rotatable=0;points=[[0,0.5],[1,0.5]];portConstraint=eastwest;" parent="UFddj2QTsvXGBN7HI6nM-505" vertex="1">
          <mxGeometry y="182" width="160" height="26" as="geometry" />
        </mxCell>
        <mxCell id="UFddj2QTsvXGBN7HI6nM-513" value="  + RemoveService()" style="text;strokeColor=none;fillColor=none;align=left;verticalAlign=top;spacingLeft=4;spacingRight=4;overflow=hidden;rotatable=0;points=[[0,0.5],[1,0.5]];portConstraint=eastwest;" parent="UFddj2QTsvXGBN7HI6nM-505" vertex="1">
          <mxGeometry y="208" width="160" height="26" as="geometry" />
        </mxCell>
        <mxCell id="UFddj2QTsvXGBN7HI6nM-514" value="  + GetAvailableServices()" style="text;strokeColor=none;fillColor=none;align=left;verticalAlign=top;spacingLeft=4;spacingRight=4;overflow=hidden;rotatable=0;points=[[0,0.5],[1,0.5]];portConstraint=eastwest;" parent="UFddj2QTsvXGBN7HI6nM-505" vertex="1">
          <mxGeometry y="234" width="160" height="26" as="geometry" />
        </mxCell>
        <mxCell id="UFddj2QTsvXGBN7HI6nM-531" value="" style="endArrow=none;html=1;rounded=0;exitX=0;exitY=0.5;exitDx=0;exitDy=0;entryX=1;entryY=0.5;entryDx=0;entryDy=0;" parent="UFddj2QTsvXGBN7HI6nM-505" source="UFddj2QTsvXGBN7HI6nM-510" target="UFddj2QTsvXGBN7HI6nM-510" edge="1">
          <mxGeometry width="50" height="50" relative="1" as="geometry">
            <mxPoint x="180" y="140" as="sourcePoint" />
            <mxPoint x="230" y="90" as="targetPoint" />
          </mxGeometry>
        </mxCell>
        <mxCell id="UFddj2QTsvXGBN7HI6nM-515" value="Donation" style="swimlane;fontStyle=1;childLayout=stackLayout;horizontal=1;startSize=26;horizontalStack=0;resizeParent=1;resizeParentMax=0;resizeLast=0;collapsible=1;marginBottom=0;" parent="1" vertex="1">
          <mxGeometry x="560" y="442" width="160" height="234" as="geometry" />
        </mxCell>
        <mxCell id="UFddj2QTsvXGBN7HI6nM-516" value="  + CartID: Integer" style="text;strokeColor=none;fillColor=none;align=left;verticalAlign=top;spacingLeft=4;spacingRight=4;overflow=hidden;rotatable=0;points=[[0,0.5],[1,0.5]];portConstraint=eastwest;" parent="UFddj2QTsvXGBN7HI6nM-515" vertex="1">
          <mxGeometry y="26" width="160" height="26" as="geometry" />
        </mxCell>
        <mxCell id="UFddj2QTsvXGBN7HI6nM-517" value="  + UserID: Integer" style="text;strokeColor=none;fillColor=none;align=left;verticalAlign=top;spacingLeft=4;spacingRight=4;overflow=hidden;rotatable=0;points=[[0,0.5],[1,0.5]];portConstraint=eastwest;" parent="UFddj2QTsvXGBN7HI6nM-515" vertex="1">
          <mxGeometry y="52" width="160" height="26" as="geometry" />
        </mxCell>
        <mxCell id="UFddj2QTsvXGBN7HI6nM-518" value="  + Items: List/String" style="text;strokeColor=none;fillColor=none;align=left;verticalAlign=top;spacingLeft=4;spacingRight=4;overflow=hidden;rotatable=0;points=[[0,0.5],[1,0.5]];portConstraint=eastwest;" parent="UFddj2QTsvXGBN7HI6nM-515" vertex="1">
          <mxGeometry y="78" width="160" height="26" as="geometry" />
        </mxCell>
        <mxCell id="UFddj2QTsvXGBN7HI6nM-519" value="  " style="text;strokeColor=none;fillColor=none;align=left;verticalAlign=top;spacingLeft=4;spacingRight=4;overflow=hidden;rotatable=0;points=[[0,0.5],[1,0.5]];portConstraint=eastwest;" parent="UFddj2QTsvXGBN7HI6nM-515" vertex="1">
          <mxGeometry y="104" width="160" height="26" as="geometry" />
        </mxCell>
        <mxCell id="UFddj2QTsvXGBN7HI6nM-520" value="  + AddToCart()" style="text;strokeColor=none;fillColor=none;align=left;verticalAlign=top;spacingLeft=4;spacingRight=4;overflow=hidden;rotatable=0;points=[[0,0.5],[1,0.5]];portConstraint=eastwest;" parent="UFddj2QTsvXGBN7HI6nM-515" vertex="1">
          <mxGeometry y="130" width="160" height="26" as="geometry" />
        </mxCell>
        <mxCell id="UFddj2QTsvXGBN7HI6nM-521" value="  + RemoveFromCart()" style="text;strokeColor=none;fillColor=none;align=left;verticalAlign=top;spacingLeft=4;spacingRight=4;overflow=hidden;rotatable=0;points=[[0,0.5],[1,0.5]];portConstraint=eastwest;" parent="UFddj2QTsvXGBN7HI6nM-515" vertex="1">
          <mxGeometry y="156" width="160" height="26" as="geometry" />
        </mxCell>
        <mxCell id="UFddj2QTsvXGBN7HI6nM-522" value="  + ViewCart()" style="text;strokeColor=none;fillColor=none;align=left;verticalAlign=top;spacingLeft=4;spacingRight=4;overflow=hidden;rotatable=0;points=[[0,0.5],[1,0.5]];portConstraint=eastwest;" parent="UFddj2QTsvXGBN7HI6nM-515" vertex="1">
          <mxGeometry y="182" width="160" height="26" as="geometry" />
        </mxCell>
        <mxCell id="UFddj2QTsvXGBN7HI6nM-523" value="  + Checkout()" style="text;strokeColor=none;fillColor=none;align=left;verticalAlign=top;spacingLeft=4;spacingRight=4;overflow=hidden;rotatable=0;points=[[0,0.5],[1,0.5]];portConstraint=eastwest;" parent="UFddj2QTsvXGBN7HI6nM-515" vertex="1">
          <mxGeometry y="208" width="160" height="26" as="geometry" />
        </mxCell>
        <mxCell id="UFddj2QTsvXGBN7HI6nM-526" value="" style="endArrow=none;html=1;rounded=0;exitX=0;exitY=0.5;exitDx=0;exitDy=0;entryX=1;entryY=0.5;entryDx=0;entryDy=0;" parent="UFddj2QTsvXGBN7HI6nM-515" source="UFddj2QTsvXGBN7HI6nM-519" target="UFddj2QTsvXGBN7HI6nM-519" edge="1">
          <mxGeometry width="50" height="50" relative="1" as="geometry">
            <mxPoint y="316" as="sourcePoint" />
            <mxPoint x="50" y="266" as="targetPoint" />
          </mxGeometry>
        </mxCell>
        <mxCell id="PpwVn7hVhNHiT0rk4UVt-8" value="" style="endArrow=open;html=1;endSize=12;startArrow=diamondThin;startSize=14;startFill=0;edgeStyle=orthogonalEdgeStyle;align=left;verticalAlign=bottom;rounded=0;exitX=0;exitY=0.5;exitDx=0;exitDy=0;entryX=1;entryY=0.5;entryDx=0;entryDy=0;" parent="1" source="UFddj2QTsvXGBN7HI6nM-480" target="UFddj2QTsvXGBN7HI6nM-455" edge="1">
          <mxGeometry x="-1" y="3" relative="1" as="geometry">
            <mxPoint x="1200" y="350" as="sourcePoint" />
            <mxPoint x="1360" y="350" as="targetPoint" />
          </mxGeometry>
        </mxCell>
        <mxCell id="PpwVn7hVhNHiT0rk4UVt-10" value="" style="endArrow=open;html=1;endSize=12;startArrow=diamondThin;startSize=14;startFill=0;edgeStyle=orthogonalEdgeStyle;align=left;verticalAlign=bottom;rounded=0;entryX=0;entryY=0.5;entryDx=0;entryDy=0;" parent="1" target="UFddj2QTsvXGBN7HI6nM-501" edge="1">
          <mxGeometry x="-1" y="3" relative="1" as="geometry">
            <mxPoint x="1700" y="274.82" as="sourcePoint" />
            <mxPoint x="1860" y="274.82" as="targetPoint" />
          </mxGeometry>
        </mxCell>
        <mxCell id="PpwVn7hVhNHiT0rk4UVt-14" value="" style="endArrow=open;html=1;endSize=12;startArrow=diamondThin;startSize=14;startFill=0;edgeStyle=orthogonalEdgeStyle;align=left;verticalAlign=bottom;rounded=0;entryX=0;entryY=0.5;entryDx=0;entryDy=0;exitX=0.001;exitY=1.198;exitDx=0;exitDy=0;exitPerimeter=0;" parent="1" source="UFddj2QTsvXGBN7HI6nM-258" target="UFddj2QTsvXGBN7HI6nM-465" edge="1">
          <mxGeometry x="-1" y="3" relative="1" as="geometry">
            <mxPoint x="610" y="290" as="sourcePoint" />
            <mxPoint x="1450" y="460" as="targetPoint" />
            <Array as="points">
              <mxPoint x="790" y="300" />
              <mxPoint x="780" y="300" />
              <mxPoint x="780" y="673" />
            </Array>
            <mxPoint as="offset" />
          </mxGeometry>
        </mxCell>
        <mxCell id="PpwVn7hVhNHiT0rk4UVt-18" value="" style="endArrow=classic;startArrow=classic;html=1;rounded=0;exitX=0.379;exitY=-0.009;exitDx=0;exitDy=0;exitPerimeter=0;" parent="1" source="UFddj2QTsvXGBN7HI6nM-460" edge="1">
          <mxGeometry width="50" height="50" relative="1" as="geometry">
            <mxPoint x="1550" y="410" as="sourcePoint" />
            <mxPoint x="1600" y="360" as="targetPoint" />
          </mxGeometry>
        </mxCell>
        <mxCell id="PpwVn7hVhNHiT0rk4UVt-20" value="" style="endArrow=open;html=1;endSize=12;startArrow=diamondThin;startSize=14;startFill=0;edgeStyle=orthogonalEdgeStyle;align=left;verticalAlign=bottom;rounded=0;entryX=0.684;entryY=0;entryDx=0;entryDy=0;entryPerimeter=0;" parent="1" target="UFddj2QTsvXGBN7HI6nM-482" edge="1">
          <mxGeometry x="-1" y="3" relative="1" as="geometry">
            <mxPoint x="1600" y="360" as="sourcePoint" />
            <mxPoint x="1760" y="380" as="targetPoint" />
          </mxGeometry>
        </mxCell>
        <mxCell id="PpwVn7hVhNHiT0rk4UVt-21" value="" style="endArrow=open;html=1;endSize=12;startArrow=diamondThin;startSize=14;startFill=0;edgeStyle=orthogonalEdgeStyle;align=left;verticalAlign=bottom;rounded=0;entryX=0.5;entryY=0;entryDx=0;entryDy=0;exitX=0;exitY=0.5;exitDx=0;exitDy=0;" parent="1" source="UFddj2QTsvXGBN7HI6nM-253" target="UFddj2QTsvXGBN7HI6nM-515" edge="1">
          <mxGeometry x="-1" y="3" relative="1" as="geometry">
            <mxPoint x="350" y="250" as="sourcePoint" />
            <mxPoint x="510" y="250" as="targetPoint" />
          </mxGeometry>
        </mxCell>
        <mxCell id="PpwVn7hVhNHiT0rk4UVt-22" value="" style="endArrow=classic;startArrow=classic;html=1;rounded=0;exitX=0.5;exitY=0;exitDx=0;exitDy=0;entryX=0;entryY=0.5;entryDx=0;entryDy=0;" parent="1" source="UFddj2QTsvXGBN7HI6nM-248" target="UFddj2QTsvXGBN7HI6nM-510" edge="1">
          <mxGeometry width="50" height="50" relative="1" as="geometry">
            <mxPoint x="1430" y="-120" as="sourcePoint" />
            <mxPoint x="1480" y="-170" as="targetPoint" />
          </mxGeometry>
        </mxCell>
        <mxCell id="PpwVn7hVhNHiT0rk4UVt-23" value="" style="endArrow=classic;startArrow=classic;html=1;rounded=0;exitX=0.5;exitY=0;exitDx=0;exitDy=0;entryX=1;entryY=0.5;entryDx=0;entryDy=0;" parent="1" source="UFddj2QTsvXGBN7HI6nM-471" target="UFddj2QTsvXGBN7HI6nM-510" edge="1">
          <mxGeometry width="50" height="50" relative="1" as="geometry">
            <mxPoint x="1380" y="-63" as="sourcePoint" />
            <mxPoint x="1970" y="-420" as="targetPoint" />
          </mxGeometry>
        </mxCell>
        <mxCell id="PpwVn7hVhNHiT0rk4UVt-28" value="" style="endArrow=open;html=1;endSize=12;startArrow=diamondThin;startSize=14;startFill=0;edgeStyle=orthogonalEdgeStyle;align=left;verticalAlign=bottom;rounded=0;entryX=0;entryY=0.308;entryDx=0;entryDy=0;entryPerimeter=0;" parent="1" target="UFddj2QTsvXGBN7HI6nM-450" edge="1">
          <mxGeometry x="-1" y="3" relative="1" as="geometry">
            <mxPoint x="950" y="191.82" as="sourcePoint" />
            <mxPoint x="1080" y="201" as="targetPoint" />
          </mxGeometry>
        </mxCell>
        <mxCell id="Z4V1F3YT3ZnxIMDheG5e-6" value="class PetHealthRecord {" style="swimlane;fontStyle=1;childLayout=stackLayout;horizontal=1;startSize=26;horizontalStack=0;resizeParent=1;resizeParentMax=0;resizeLast=0;collapsible=1;marginBottom=0;" vertex="1" parent="1">
          <mxGeometry x="1878" y="480" width="190" height="286" as="geometry" />
        </mxCell>
        <mxCell id="Z4V1F3YT3ZnxIMDheG5e-7" value="  + RecordID : Integer" style="text;strokeColor=none;fillColor=none;align=left;verticalAlign=top;spacingLeft=4;spacingRight=4;overflow=hidden;rotatable=0;points=[[0,0.5],[1,0.5]];portConstraint=eastwest;" vertex="1" parent="Z4V1F3YT3ZnxIMDheG5e-6">
          <mxGeometry y="26" width="190" height="26" as="geometry" />
        </mxCell>
        <mxCell id="Z4V1F3YT3ZnxIMDheG5e-8" value="  + PetID : Integer" style="text;strokeColor=none;fillColor=none;align=left;verticalAlign=top;spacingLeft=4;spacingRight=4;overflow=hidden;rotatable=0;points=[[0,0.5],[1,0.5]];portConstraint=eastwest;" vertex="1" parent="Z4V1F3YT3ZnxIMDheG5e-6">
          <mxGeometry y="52" width="190" height="26" as="geometry" />
        </mxCell>
        <mxCell id="Z4V1F3YT3ZnxIMDheG5e-9" value="  + Date : DateTime" style="text;strokeColor=none;fillColor=none;align=left;verticalAlign=top;spacingLeft=4;spacingRight=4;overflow=hidden;rotatable=0;points=[[0,0.5],[1,0.5]];portConstraint=eastwest;" vertex="1" parent="Z4V1F3YT3ZnxIMDheG5e-6">
          <mxGeometry y="78" width="190" height="26" as="geometry" />
        </mxCell>
        <mxCell id="Z4V1F3YT3ZnxIMDheG5e-10" value="  + Details : Array" style="text;strokeColor=none;fillColor=none;align=left;verticalAlign=top;spacingLeft=4;spacingRight=4;overflow=hidden;rotatable=0;points=[[0,0.5],[1,0.5]];portConstraint=eastwest;" vertex="1" parent="Z4V1F3YT3ZnxIMDheG5e-6">
          <mxGeometry y="104" width="190" height="26" as="geometry" />
        </mxCell>
        <mxCell id="UFddj2QTsvXGBN7HI6nM-489" value="  " style="text;strokeColor=none;fillColor=none;align=left;verticalAlign=top;spacingLeft=4;spacingRight=4;overflow=hidden;rotatable=0;points=[[0,0.5],[1,0.5]];portConstraint=eastwest;" parent="Z4V1F3YT3ZnxIMDheG5e-6" vertex="1">
          <mxGeometry y="130" width="190" height="26" as="geometry" />
        </mxCell>
        <mxCell id="Z4V1F3YT3ZnxIMDheG5e-12" value="  + AddHealthRecord()" style="text;strokeColor=none;fillColor=none;align=left;verticalAlign=top;spacingLeft=4;spacingRight=4;overflow=hidden;rotatable=0;points=[[0,0.5],[1,0.5]];portConstraint=eastwest;" vertex="1" parent="Z4V1F3YT3ZnxIMDheG5e-6">
          <mxGeometry y="156" width="190" height="26" as="geometry" />
        </mxCell>
        <mxCell id="Z4V1F3YT3ZnxIMDheG5e-13" value="  + UpdateHealthRecord()" style="text;strokeColor=none;fillColor=none;align=left;verticalAlign=top;spacingLeft=4;spacingRight=4;overflow=hidden;rotatable=0;points=[[0,0.5],[1,0.5]];portConstraint=eastwest;" vertex="1" parent="Z4V1F3YT3ZnxIMDheG5e-6">
          <mxGeometry y="182" width="190" height="26" as="geometry" />
        </mxCell>
        <mxCell id="Z4V1F3YT3ZnxIMDheG5e-14" value="  + GetHealthRecord()" style="text;strokeColor=none;fillColor=none;align=left;verticalAlign=top;spacingLeft=4;spacingRight=4;overflow=hidden;rotatable=0;points=[[0,0.5],[1,0.5]];portConstraint=eastwest;" vertex="1" parent="Z4V1F3YT3ZnxIMDheG5e-6">
          <mxGeometry y="208" width="190" height="26" as="geometry" />
        </mxCell>
        <mxCell id="Z4V1F3YT3ZnxIMDheG5e-15" value="  + AddDetails()" style="text;strokeColor=none;fillColor=none;align=left;verticalAlign=top;spacingLeft=4;spacingRight=4;overflow=hidden;rotatable=0;points=[[0,0.5],[1,0.5]];portConstraint=eastwest;" vertex="1" parent="Z4V1F3YT3ZnxIMDheG5e-6">
          <mxGeometry y="234" width="190" height="26" as="geometry" />
        </mxCell>
        <mxCell id="Z4V1F3YT3ZnxIMDheG5e-16" value="}" style="text;strokeColor=none;fillColor=none;align=left;verticalAlign=top;spacingLeft=4;spacingRight=4;overflow=hidden;rotatable=0;points=[[0,0.5],[1,0.5]];portConstraint=eastwest;" vertex="1" parent="Z4V1F3YT3ZnxIMDheG5e-6">
          <mxGeometry y="260" width="190" height="26" as="geometry" />
        </mxCell>
        <mxCell id="UFddj2QTsvXGBN7HI6nM-529" value="" style="endArrow=none;html=1;rounded=0;exitX=0;exitY=0.5;exitDx=0;exitDy=0;entryX=1;entryY=0.5;entryDx=0;entryDy=0;" parent="Z4V1F3YT3ZnxIMDheG5e-6" source="UFddj2QTsvXGBN7HI6nM-489" target="UFddj2QTsvXGBN7HI6nM-489" edge="1">
          <mxGeometry width="50" height="50" relative="1" as="geometry">
            <mxPoint x="-298" y="280" as="sourcePoint" />
            <mxPoint x="-248" y="230" as="targetPoint" />
          </mxGeometry>
        </mxCell>
        <mxCell id="Z4V1F3YT3ZnxIMDheG5e-21" value="class PetHealthRecord {" style="swimlane;fontStyle=1;childLayout=stackLayout;horizontal=1;startSize=26;horizontalStack=0;resizeParent=1;resizeParentMax=0;resizeLast=0;collapsible=1;marginBottom=0;" vertex="1" parent="1">
          <mxGeometry x="1340" y="10" width="190" height="286" as="geometry" />
        </mxCell>
        <mxCell id="Z4V1F3YT3ZnxIMDheG5e-22" value="  + RecordID : Integer" style="text;strokeColor=none;fillColor=none;align=left;verticalAlign=top;spacingLeft=4;spacingRight=4;overflow=hidden;rotatable=0;points=[[0,0.5],[1,0.5]];portConstraint=eastwest;" vertex="1" parent="Z4V1F3YT3ZnxIMDheG5e-21">
          <mxGeometry y="26" width="190" height="26" as="geometry" />
        </mxCell>
        <mxCell id="Z4V1F3YT3ZnxIMDheG5e-23" value="  + PetID : Integer" style="text;strokeColor=none;fillColor=none;align=left;verticalAlign=top;spacingLeft=4;spacingRight=4;overflow=hidden;rotatable=0;points=[[0,0.5],[1,0.5]];portConstraint=eastwest;" vertex="1" parent="Z4V1F3YT3ZnxIMDheG5e-21">
          <mxGeometry y="52" width="190" height="26" as="geometry" />
        </mxCell>
        <mxCell id="Z4V1F3YT3ZnxIMDheG5e-24" value="  + Date : DateTime" style="text;strokeColor=none;fillColor=none;align=left;verticalAlign=top;spacingLeft=4;spacingRight=4;overflow=hidden;rotatable=0;points=[[0,0.5],[1,0.5]];portConstraint=eastwest;" vertex="1" parent="Z4V1F3YT3ZnxIMDheG5e-21">
          <mxGeometry y="78" width="190" height="26" as="geometry" />
        </mxCell>
        <mxCell id="Z4V1F3YT3ZnxIMDheG5e-25" value="  + Details : Array" style="text;strokeColor=none;fillColor=none;align=left;verticalAlign=top;spacingLeft=4;spacingRight=4;overflow=hidden;rotatable=0;points=[[0,0.5],[1,0.5]];portConstraint=eastwest;" vertex="1" parent="Z4V1F3YT3ZnxIMDheG5e-21">
          <mxGeometry y="104" width="190" height="26" as="geometry" />
        </mxCell>
        <mxCell id="Z4V1F3YT3ZnxIMDheG5e-26" value="  " style="text;strokeColor=none;fillColor=none;align=left;verticalAlign=top;spacingLeft=4;spacingRight=4;overflow=hidden;rotatable=0;points=[[0,0.5],[1,0.5]];portConstraint=eastwest;" vertex="1" parent="Z4V1F3YT3ZnxIMDheG5e-21">
          <mxGeometry y="130" width="190" height="26" as="geometry" />
        </mxCell>
        <mxCell id="Z4V1F3YT3ZnxIMDheG5e-27" value="  + AddHealthRecord()" style="text;strokeColor=none;fillColor=none;align=left;verticalAlign=top;spacingLeft=4;spacingRight=4;overflow=hidden;rotatable=0;points=[[0,0.5],[1,0.5]];portConstraint=eastwest;" vertex="1" parent="Z4V1F3YT3ZnxIMDheG5e-21">
          <mxGeometry y="156" width="190" height="26" as="geometry" />
        </mxCell>
        <mxCell id="Z4V1F3YT3ZnxIMDheG5e-28" value="  + UpdateHealthRecord()" style="text;strokeColor=none;fillColor=none;align=left;verticalAlign=top;spacingLeft=4;spacingRight=4;overflow=hidden;rotatable=0;points=[[0,0.5],[1,0.5]];portConstraint=eastwest;" vertex="1" parent="Z4V1F3YT3ZnxIMDheG5e-21">
          <mxGeometry y="182" width="190" height="26" as="geometry" />
        </mxCell>
        <mxCell id="Z4V1F3YT3ZnxIMDheG5e-29" value="  + GetHealthRecord()" style="text;strokeColor=none;fillColor=none;align=left;verticalAlign=top;spacingLeft=4;spacingRight=4;overflow=hidden;rotatable=0;points=[[0,0.5],[1,0.5]];portConstraint=eastwest;" vertex="1" parent="Z4V1F3YT3ZnxIMDheG5e-21">
          <mxGeometry y="208" width="190" height="26" as="geometry" />
        </mxCell>
        <mxCell id="Z4V1F3YT3ZnxIMDheG5e-30" value="  + AddDetails()" style="text;strokeColor=none;fillColor=none;align=left;verticalAlign=top;spacingLeft=4;spacingRight=4;overflow=hidden;rotatable=0;points=[[0,0.5],[1,0.5]];portConstraint=eastwest;" vertex="1" parent="Z4V1F3YT3ZnxIMDheG5e-21">
          <mxGeometry y="234" width="190" height="26" as="geometry" />
        </mxCell>
        <mxCell id="Z4V1F3YT3ZnxIMDheG5e-31" value="}" style="text;strokeColor=none;fillColor=none;align=left;verticalAlign=top;spacingLeft=4;spacingRight=4;overflow=hidden;rotatable=0;points=[[0,0.5],[1,0.5]];portConstraint=eastwest;" vertex="1" parent="Z4V1F3YT3ZnxIMDheG5e-21">
          <mxGeometry y="260" width="190" height="26" as="geometry" />
        </mxCell>
        <mxCell id="Z4V1F3YT3ZnxIMDheG5e-32" value="" style="endArrow=none;html=1;rounded=0;exitX=0;exitY=0.5;exitDx=0;exitDy=0;entryX=1;entryY=0.5;entryDx=0;entryDy=0;" edge="1" parent="Z4V1F3YT3ZnxIMDheG5e-21" source="Z4V1F3YT3ZnxIMDheG5e-26" target="Z4V1F3YT3ZnxIMDheG5e-26">
          <mxGeometry width="50" height="50" relative="1" as="geometry">
            <mxPoint x="-298" y="280" as="sourcePoint" />
            <mxPoint x="-248" y="230" as="targetPoint" />
          </mxGeometry>
        </mxCell>
        <mxCell id="Z4V1F3YT3ZnxIMDheG5e-37" value="" style="endArrow=open;html=1;endSize=12;startArrow=diamondThin;startSize=14;startFill=0;edgeStyle=orthogonalEdgeStyle;align=left;verticalAlign=bottom;rounded=0;entryX=-0.011;entryY=-0.096;entryDx=0;entryDy=0;entryPerimeter=0;" edge="1" parent="1" target="Z4V1F3YT3ZnxIMDheG5e-26">
          <mxGeometry x="-1" y="3" relative="1" as="geometry">
            <mxPoint x="1270" y="161" as="sourcePoint" />
            <mxPoint x="1300" y="230" as="targetPoint" />
          </mxGeometry>
        </mxCell>
      </root>
    </mxGraphModel>
  </diagram>
</mxfile>
